# File created by Blade
# Date/Time:  Thu Jan 22 16:36:26 2015
# Frame Rate: 120.000 fps
#------------------------------------------------------
:FULLY-SPECIFIED
:DEGREES
3584
root 2.788642 16.144812 44.358293 14.809626 13.771445 -0.125460
RightUpLeg -102.919522 -14.454238 0.106128
RightLeg 121.737608 -0.000000 -0.000000
RightFoot -35.881828 -0.850326 17.201316
RightToeBase -349.012935 -0.000000 -0.000000
LeftUpLeg 20.860712 -19.753761 10.162268
LeftLeg 137.850793 -0.000000 -0.000000
LeftFoot 26.876108 16.374081 -31.398956
LeftToeBase 15.170722 -0.000000 -0.000000
Spine 16.074334 8.828385 12.441931
RightShoulder -3.435417 -23.414980 -16.388444
RightArm 13.300241 -10.352406 53.324128
RightForeArm -18.184385 0.000000 112.478303
RightHand 14.523195 -0.000000 -21.843105
RightHandThumb1 -24.326973 -0.000000 -32.862282
LeftShoulder -36.119196 34.814804 -14.563849
LeftArm 29.856838 -3.573172 -80.806318
LeftForeArm 49.456826 -0.000000 7.881971
LeftHand -18.277972 0.000000 -20.549828
LeftHandThumb1 -26.253704 0.000000 33.147579
Head 14.539085 -11.615461 -3.353515
3585
root 2.792765 16.150164 44.361565 14.839572 13.730171 -0.149617
RightUpLeg -102.917731 -14.480082 0.141547
RightLeg 121.706900 -0.000000 -0.000000
RightFoot -35.918450 -0.708238 17.259615
RightToeBase -348.901534 -0.000000 -0.000000
LeftUpLeg 20.823006 -19.552512 10.203384
LeftLeg 137.942162 -0.000000 -0.000000
LeftFoot 26.782077 16.452211 -31.496773
LeftToeBase 15.260732 -0.000000 -0.000000
Spine 16.056667 8.888552 12.607884
RightShoulder -3.518261 -23.387363 -16.426394
RightArm 13.211331 -10.348535 53.421526
RightForeArm -18.192738 -0.000000 112.554382
RightHand 14.411075 -0.000000 -21.838493
RightHandThumb1 -24.326973 -0.000000 -32.862282
LeftShoulder -36.251809 34.783833 -14.585344
LeftArm 29.849334 -3.472644 -80.976428
LeftForeArm 49.648421 -0.000000 7.852232
LeftHand -18.250054 0.000000 -20.478463
LeftHandThumb1 -26.253704 0.000000 33.147579
Head 14.520141 -11.603752 -3.416941
3586
root 2.796173 16.159620 44.359045 14.932165 13.713110 -0.197411
RightUpLeg -102.967650 -14.533480 0.219113
RightLeg 121.646488 -0.000000 -0.000000
RightFoot -35.966702 -0.504842 17.344839
RightToeBase -348.753326 -0.000000 -0.000000
LeftUpLeg 20.687164 -19.357886 10.306422
LeftLeg 138.042571 -0.000000 -0.000000
LeftFoot 26.765341 16.507528 -31.552871
LeftToeBase 15.110677 -0.000000 -0.000000
Spine 15.946757 8.950596 12.804675
RightShoulder -3.607795 -23.424302 -16.448739
RightArm 13.176787 -10.318768 53.471056
RightForeArm -18.161757 -0.000000 112.587830
RightHand 14.418214 0.000000 -21.838876
RightHandThumb1 -24.326973 -0.000000 -32.862282
LeftShoulder -36.381557 34.761390 -14.661388
LeftArm 29.827910 -3.414457 -81.117910
LeftForeArm 49.715204 -0.000000 7.873927
LeftHand -18.361877 -0.000000 -20.423806
LeftHandThumb1 -26.253704 0.000000 33.147579
Head 14.570446 -11.644329 -3.545825
3587
root 2.805582 16.165692 44.360415 14.982695 13.657053 -0.207886
RightUpLeg -102.994401 -14.601619 0.234433
RightLeg 121.620371 -0.000000 -0.000000
RightFoot -35.965451 -0.208113 17.486805
RightToeBase -348.507516 -0.000000 -0.000000
LeftUpLeg 20.628052 -19.096545 10.330520
LeftLeg 138.115336 -0.000000 -0.000000
LeftFoot 26.655130 16.623489 -31.737978
LeftToeBase 15.236319 -0.000000 -0.000000
Spine 15.892118 9.042438 12.941490
RightShoulder -3.695840 -23.414614 -16.454522
RightArm 13.056674 -10.284506 53.483964
RightForeArm -18.125508 -0.000000 112.658733
RightHand 14.362837 -0.000000 -21.665329
RightHandThumb1 -24.326973 -0.000000 -32.862282
LeftShoulder -36.539115 34.728527 -14.717306
LeftArm 29.821259 -3.396183 -81.297219
LeftForeArm 49.910223 -0.000000 7.864820
LeftHand -18.454137 0.000000 -20.459897
LeftHandThumb1 -26.253704 0.000000 33.147579
Head 14.600859 -11.726332 -3.648304
3588
root 2.811277 16.173453 44.361243 15.039485 13.625195 -0.248332
RightUpLeg -103.014432 -14.676315 0.270916
RightLeg 121.586722 -0.000000 -0.000000
RightFoot -35.976798 0.071099 17.748277
RightToeBase -348.416184 -0.000000 -0.000000
LeftUpLeg 20.546780 -18.867496 10.402274
LeftLeg 138.183458 -0.000000 -0.000000
LeftFoot 26.613068 16.701115 -31.885727
LeftToeBase 15.170402 -0.000000 -0.000000
Spine 15.804717 9.100257 13.136018
RightShoulder -3.744338 -23.402670 -16.541906
RightArm 12.936288 -10.291782 53.588482
RightForeArm -18.102480 0.000000 112.697529
RightHand 14.340632 -0.000000 -21.650975
RightHandThumb1 -24.326973 -0.000000 -32.862282
LeftShoulder -36.683920 34.706665 -14.822767
LeftArm 29.784792 -3.368973 -81.428258
LeftForeArm 50.107168 -0.000000 7.867279
LeftHand -18.470618 -0.000000 -20.321070
LeftHandThumb1 -26.253704 0.000000 33.147579
Head 14.588442 -11.767618 -3.783457
3589
root 2.816556 16.178648 44.364568 15.081552 13.589144 -0.281592
RightUpLeg -103.027191 -14.758282 0.301628
RightLeg 121.583352 -0.000000 -0.000000
RightFoot -35.963612 0.403148 17.933786
RightToeBase -348.277093 -0.000000 -0.000000
LeftUpLeg 20.499050 -18.619100 10.467239
LeftLeg 138.224193 -0.000000 -0.000000
LeftFoot 26.595532 16.787585 -31.927260
LeftToeBase 14.978019 -0.000000 -0.000000
Spine 15.727001 9.182968 13.286413
RightShoulder -3.828840 -23.416718 -16.559714
RightArm 12.840536 -10.275738 53.649763
RightForeArm -18.060609 -0.000000 112.728536
RightHand 14.319083 -0.000000 -21.662520
RightHandThumb1 -24.326973 -0.000000 -32.862282
LeftShoulder -36.857155 34.673729 -14.897517
LeftArm 29.748601 -3.349399 -81.568218
LeftForeArm 50.297629 -0.000000 7.892499
LeftHand -18.521601 -0.000000 -20.343558
LeftHandThumb1 -26.253704 0.000000 33.147579
Head 14.617876 -11.897263 -3.906118
